<svg width="35" height="35" viewBox="0 0 35 35" fill="none" xmlns="http://www.w3.org/2000/svg">
<path d="M17.4771 8.51148C12.5187 8.51148 8.51927 12.5109 8.51927 17.4693C8.51927 22.4277 12.5187 26.4271 17.4771 26.4271C22.4355 26.4271 26.4349 22.4277 26.4349 17.4693C26.4349 12.5109 22.4355 8.51148 17.4771 8.51148ZM17.4771 23.293C14.2729 23.293 11.6533 20.6813 11.6533 17.4693C11.6533 14.2573 14.2651 11.6455 17.4771 11.6455C20.6891 11.6455 23.3008 14.2573 23.3008 17.4693C23.3008 20.6813 20.6813 23.293 17.4771 23.293ZM28.8907 8.14506C28.8907 9.30669 27.9552 10.2344 26.8013 10.2344C25.6397 10.2344 24.7119 9.29889 24.7119 8.14506C24.7119 6.99122 25.6475 6.05568 26.8013 6.05568C27.9552 6.05568 28.8907 6.99122 28.8907 8.14506ZM34.8236 10.2656C34.6911 7.46679 34.0518 4.98761 32.0014 2.94501C29.9588 0.902407 27.4796 0.263121 24.6808 0.12279C21.7962 -0.0409299 13.1502 -0.0409299 10.2656 0.12279C7.47459 0.255325 4.9954 0.894611 2.94501 2.93721C0.894612 4.97981 0.263121 7.45899 0.12279 10.2578C-0.0409299 13.1424 -0.0409299 21.7884 0.12279 24.673C0.255325 27.4718 0.894612 29.951 2.94501 31.9936C4.9954 34.0362 7.46679 34.6755 10.2656 34.8158C13.1502 34.9795 21.7962 34.9795 24.6808 34.8158C27.4796 34.6833 29.9588 34.044 32.0014 31.9936C34.044 29.951 34.6833 27.4718 34.8236 24.673C34.9873 21.7884 34.9873 13.1502 34.8236 10.2656ZM31.097 27.768C30.4889 29.2961 29.3117 30.4733 27.7758 31.0892C25.476 32.0014 20.0186 31.7909 17.4771 31.7909C14.9355 31.7909 9.47041 31.9936 7.17833 31.0892C5.65028 30.4811 4.47306 29.3039 3.85716 27.768C2.94501 25.4682 3.1555 20.0108 3.1555 17.4693C3.1555 14.9277 2.9528 9.46261 3.85716 7.17054C4.46526 5.64248 5.64248 4.46526 7.17833 3.84936C9.4782 2.93721 14.9355 3.14771 17.4771 3.14771C20.0186 3.14771 25.4838 2.94501 27.7758 3.84936C29.3039 4.45746 30.4811 5.63469 31.097 7.17054C32.0092 9.47041 31.7987 14.9277 31.7987 17.4693C31.7987 20.0108 32.0092 25.476 31.097 27.768Z" fill="white"/>
</svg>
